<mxfile host="app.diagrams.net" agent="Mozilla/5.0 (Windows NT 10.0; Win64; x64) AppleWebKit/537.36 (KHTML, like Gecko) Chrome/132.0.0.0 Safari/537.36 Edg/132.0.0.0" version="26.0.8">
  <diagram name="Page-1" id="wzj8syk_gz0zfbO6pVpG">
    <mxGraphModel dx="1282" dy="613" grid="1" gridSize="10" guides="1" tooltips="1" connect="1" arrows="1" fold="1" page="1" pageScale="1" pageWidth="850" pageHeight="1100" math="0" shadow="0">
      <root>
        <mxCell id="0" />
        <mxCell id="1" parent="0" />
        <mxCell id="K4bSABwrhIoHfdcvEbvu-1" value="Department" style="rounded=0;whiteSpace=wrap;html=1;" vertex="1" parent="1">
          <mxGeometry x="550" y="240" width="120" height="60" as="geometry" />
        </mxCell>
        <mxCell id="K4bSABwrhIoHfdcvEbvu-2" value="Employee" style="rounded=0;whiteSpace=wrap;html=1;" vertex="1" parent="1">
          <mxGeometry x="180" y="240" width="120" height="60" as="geometry" />
        </mxCell>
        <mxCell id="K4bSABwrhIoHfdcvEbvu-3" value="&lt;u&gt;department_id&lt;/u&gt;" style="ellipse;whiteSpace=wrap;html=1;" vertex="1" parent="1">
          <mxGeometry x="570" y="140" width="80" height="50" as="geometry" />
        </mxCell>
        <mxCell id="K4bSABwrhIoHfdcvEbvu-4" value="address" style="ellipse;whiteSpace=wrap;html=1;" vertex="1" parent="1">
          <mxGeometry x="580" y="350" width="80" height="50" as="geometry" />
        </mxCell>
        <mxCell id="K4bSABwrhIoHfdcvEbvu-5" value="department_name" style="ellipse;whiteSpace=wrap;html=1;" vertex="1" parent="1">
          <mxGeometry x="720" y="240" width="80" height="50" as="geometry" />
        </mxCell>
        <mxCell id="K4bSABwrhIoHfdcvEbvu-6" value="date_of_birth" style="ellipse;whiteSpace=wrap;html=1;" vertex="1" parent="1">
          <mxGeometry x="230" y="330" width="80" height="50" as="geometry" />
        </mxCell>
        <mxCell id="K4bSABwrhIoHfdcvEbvu-7" value="phone_number" style="ellipse;whiteSpace=wrap;html=1;" vertex="1" parent="1">
          <mxGeometry x="90" y="330" width="80" height="50" as="geometry" />
        </mxCell>
        <mxCell id="K4bSABwrhIoHfdcvEbvu-8" value="base_salary" style="ellipse;whiteSpace=wrap;html=1;" vertex="1" parent="1">
          <mxGeometry x="20" y="240" width="80" height="50" as="geometry" />
        </mxCell>
        <mxCell id="K4bSABwrhIoHfdcvEbvu-9" value="sex" style="ellipse;whiteSpace=wrap;html=1;" vertex="1" parent="1">
          <mxGeometry x="30" y="160" width="80" height="50" as="geometry" />
        </mxCell>
        <mxCell id="K4bSABwrhIoHfdcvEbvu-10" value="employee_name" style="ellipse;whiteSpace=wrap;html=1;" vertex="1" parent="1">
          <mxGeometry x="130" y="130" width="80" height="50" as="geometry" />
        </mxCell>
        <mxCell id="K4bSABwrhIoHfdcvEbvu-11" value="&lt;u&gt;employee_id&lt;/u&gt;" style="ellipse;whiteSpace=wrap;html=1;" vertex="1" parent="1">
          <mxGeometry x="230" y="130" width="80" height="50" as="geometry" />
        </mxCell>
        <mxCell id="K4bSABwrhIoHfdcvEbvu-13" value="cÃ³" style="rhombus;whiteSpace=wrap;html=1;" vertex="1" parent="1">
          <mxGeometry x="400" y="235" width="60" height="60" as="geometry" />
        </mxCell>
        <mxCell id="K4bSABwrhIoHfdcvEbvu-14" value="" style="endArrow=none;html=1;rounded=0;entryX=0.5;entryY=1;entryDx=0;entryDy=0;exitX=0.75;exitY=0;exitDx=0;exitDy=0;" edge="1" parent="1" source="K4bSABwrhIoHfdcvEbvu-2" target="K4bSABwrhIoHfdcvEbvu-11">
          <mxGeometry width="50" height="50" relative="1" as="geometry">
            <mxPoint x="400" y="340" as="sourcePoint" />
            <mxPoint x="450" y="290" as="targetPoint" />
          </mxGeometry>
        </mxCell>
        <mxCell id="K4bSABwrhIoHfdcvEbvu-15" value="" style="endArrow=none;html=1;rounded=0;entryX=0.5;entryY=1;entryDx=0;entryDy=0;exitX=0.25;exitY=0;exitDx=0;exitDy=0;" edge="1" parent="1" source="K4bSABwrhIoHfdcvEbvu-2" target="K4bSABwrhIoHfdcvEbvu-10">
          <mxGeometry width="50" height="50" relative="1" as="geometry">
            <mxPoint x="400" y="340" as="sourcePoint" />
            <mxPoint x="450" y="290" as="targetPoint" />
          </mxGeometry>
        </mxCell>
        <mxCell id="K4bSABwrhIoHfdcvEbvu-16" value="" style="endArrow=none;html=1;rounded=0;exitX=1;exitY=1;exitDx=0;exitDy=0;entryX=0;entryY=0;entryDx=0;entryDy=0;" edge="1" parent="1" source="K4bSABwrhIoHfdcvEbvu-9" target="K4bSABwrhIoHfdcvEbvu-2">
          <mxGeometry width="50" height="50" relative="1" as="geometry">
            <mxPoint x="400" y="340" as="sourcePoint" />
            <mxPoint x="450" y="290" as="targetPoint" />
          </mxGeometry>
        </mxCell>
        <mxCell id="K4bSABwrhIoHfdcvEbvu-17" value="" style="endArrow=none;html=1;rounded=0;exitX=1;exitY=0.5;exitDx=0;exitDy=0;entryX=0;entryY=0.5;entryDx=0;entryDy=0;" edge="1" parent="1" source="K4bSABwrhIoHfdcvEbvu-8" target="K4bSABwrhIoHfdcvEbvu-2">
          <mxGeometry width="50" height="50" relative="1" as="geometry">
            <mxPoint x="400" y="340" as="sourcePoint" />
            <mxPoint x="450" y="290" as="targetPoint" />
          </mxGeometry>
        </mxCell>
        <mxCell id="K4bSABwrhIoHfdcvEbvu-18" value="" style="endArrow=none;html=1;rounded=0;exitX=1;exitY=0;exitDx=0;exitDy=0;entryX=0;entryY=1;entryDx=0;entryDy=0;" edge="1" parent="1" source="K4bSABwrhIoHfdcvEbvu-7" target="K4bSABwrhIoHfdcvEbvu-2">
          <mxGeometry width="50" height="50" relative="1" as="geometry">
            <mxPoint x="400" y="340" as="sourcePoint" />
            <mxPoint x="450" y="290" as="targetPoint" />
          </mxGeometry>
        </mxCell>
        <mxCell id="K4bSABwrhIoHfdcvEbvu-19" value="" style="endArrow=none;html=1;rounded=0;exitX=0.5;exitY=0;exitDx=0;exitDy=0;entryX=0.75;entryY=1;entryDx=0;entryDy=0;" edge="1" parent="1" source="K4bSABwrhIoHfdcvEbvu-6" target="K4bSABwrhIoHfdcvEbvu-2">
          <mxGeometry width="50" height="50" relative="1" as="geometry">
            <mxPoint x="400" y="340" as="sourcePoint" />
            <mxPoint x="450" y="290" as="targetPoint" />
          </mxGeometry>
        </mxCell>
        <mxCell id="K4bSABwrhIoHfdcvEbvu-20" value="" style="endArrow=none;html=1;rounded=0;entryX=0.5;entryY=1;entryDx=0;entryDy=0;exitX=0.5;exitY=0;exitDx=0;exitDy=0;" edge="1" parent="1" source="K4bSABwrhIoHfdcvEbvu-1" target="K4bSABwrhIoHfdcvEbvu-3">
          <mxGeometry width="50" height="50" relative="1" as="geometry">
            <mxPoint x="400" y="340" as="sourcePoint" />
            <mxPoint x="450" y="290" as="targetPoint" />
          </mxGeometry>
        </mxCell>
        <mxCell id="K4bSABwrhIoHfdcvEbvu-21" value="" style="endArrow=none;html=1;rounded=0;entryX=0;entryY=0.5;entryDx=0;entryDy=0;exitX=1;exitY=0.5;exitDx=0;exitDy=0;" edge="1" parent="1" source="K4bSABwrhIoHfdcvEbvu-1" target="K4bSABwrhIoHfdcvEbvu-5">
          <mxGeometry width="50" height="50" relative="1" as="geometry">
            <mxPoint x="400" y="340" as="sourcePoint" />
            <mxPoint x="450" y="290" as="targetPoint" />
          </mxGeometry>
        </mxCell>
        <mxCell id="K4bSABwrhIoHfdcvEbvu-22" value="" style="endArrow=none;html=1;rounded=0;entryX=0.5;entryY=1;entryDx=0;entryDy=0;exitX=0.5;exitY=0;exitDx=0;exitDy=0;" edge="1" parent="1" source="K4bSABwrhIoHfdcvEbvu-4" target="K4bSABwrhIoHfdcvEbvu-1">
          <mxGeometry width="50" height="50" relative="1" as="geometry">
            <mxPoint x="400" y="340" as="sourcePoint" />
            <mxPoint x="450" y="290" as="targetPoint" />
          </mxGeometry>
        </mxCell>
        <mxCell id="K4bSABwrhIoHfdcvEbvu-23" value="" style="endArrow=none;html=1;rounded=0;entryX=0;entryY=0.5;entryDx=0;entryDy=0;exitX=1;exitY=0.5;exitDx=0;exitDy=0;" edge="1" parent="1" source="K4bSABwrhIoHfdcvEbvu-13" target="K4bSABwrhIoHfdcvEbvu-1">
          <mxGeometry width="50" height="50" relative="1" as="geometry">
            <mxPoint x="400" y="340" as="sourcePoint" />
            <mxPoint x="450" y="290" as="targetPoint" />
          </mxGeometry>
        </mxCell>
        <mxCell id="K4bSABwrhIoHfdcvEbvu-24" value="1" style="edgeLabel;html=1;align=center;verticalAlign=middle;resizable=0;points=[];" vertex="1" connectable="0" parent="K4bSABwrhIoHfdcvEbvu-23">
          <mxGeometry x="-0.0457" y="-3" relative="1" as="geometry">
            <mxPoint as="offset" />
          </mxGeometry>
        </mxCell>
        <mxCell id="K4bSABwrhIoHfdcvEbvu-25" value="" style="endArrow=classic;html=1;rounded=0;entryX=1;entryY=0.5;entryDx=0;entryDy=0;exitX=0;exitY=0.5;exitDx=0;exitDy=0;" edge="1" parent="1" source="K4bSABwrhIoHfdcvEbvu-13" target="K4bSABwrhIoHfdcvEbvu-2">
          <mxGeometry width="50" height="50" relative="1" as="geometry">
            <mxPoint x="400" y="340" as="sourcePoint" />
            <mxPoint x="450" y="290" as="targetPoint" />
          </mxGeometry>
        </mxCell>
        <mxCell id="K4bSABwrhIoHfdcvEbvu-26" value="n" style="edgeLabel;html=1;align=center;verticalAlign=middle;resizable=0;points=[];" vertex="1" connectable="0" parent="K4bSABwrhIoHfdcvEbvu-25">
          <mxGeometry x="-0.0963" relative="1" as="geometry">
            <mxPoint as="offset" />
          </mxGeometry>
        </mxCell>
      </root>
    </mxGraphModel>
  </diagram>
</mxfile>
